<svg xmlns="http://www.w3.org/2000/svg" xmlns:xlink="http://www.w3.org/1999/xlink" viewBox="0 0 754.14 228.82"><defs><style>.cls-1{fill:none;}.cls-11,.cls-16,.cls-2,.cls-32,.cls-39,.cls-40,.cls-5,.cls-62{fill:#0cbe82;}.cls-2,.cls-59,.cls-60{opacity:0.1;}.cls-11,.cls-16,.cls-2,.cls-20,.cls-23,.cls-24,.cls-25,.cls-26,.cls-28,.cls-36,.cls-39,.cls-40,.cls-59,.cls-60{isolation:isolate;}.cls-3{fill:#3f3d56;}.cls-4{fill:#d0cde1;}.cls-6{fill:#fff;}.cls-23,.cls-24,.cls-25,.cls-26,.cls-39,.cls-68,.cls-7{opacity:0.5;}.cls-8{fill:url(#linear-gradient);}.cls-9{fill:#f2f2f2;}.cls-10{fill:#e0e0e0;}.cls-11,.cls-28{opacity:0.7;}.cls-12{fill:url(#linear-gradient-2);}.cls-13{fill:#f5f5f5;}.cls-14{fill:url(#linear-gradient-3);}.cls-15{clip-path:url(#clip-path);}.cls-16,.cls-20{opacity:0.4;}.cls-17{fill:url(#linear-gradient-4);}.cls-18{fill:url(#linear-gradient-5);}.cls-19{clip-path:url(#clip-path-2);}.cls-20{fill:#bdbdbd;}.cls-21{fill:url(#linear-gradient-6);}.cls-22,.cls-26{fill:#47e6b1;}.cls-23{fill:#4d8af0;}.cls-24,.cls-31{fill:#fdd835;}.cls-25,.cls-30{fill:#f55f44;}.cls-27{fill:url(#linear-gradient-7);}.cls-28,.cls-29{fill:#3ad29f;}.cls-32{font-size:45.84px;letter-spacing:0.07em;}.cls-32,.cls-62{font-family:Dosis-SemiBold, Dosis;font-weight:600;}.cls-33{letter-spacing:0.13em;}.cls-34{fill:url(#linear-gradient-8);}.cls-35{fill:url(#linear-gradient-9);}.cls-36,.cls-40{opacity:0.2;}.cls-37{fill:url(#linear-gradient-10);}.cls-38{fill:url(#linear-gradient-11);}.cls-41{fill:#69f0ae;}.cls-42{fill:url(#linear-gradient-12);}.cls-43{fill:url(#linear-gradient-13);}.cls-44{fill:url(#linear-gradient-14);}.cls-45{fill:#2196f3;}.cls-46{fill:url(#linear-gradient-15);}.cls-47{fill:url(#linear-gradient-16);}.cls-48{fill:url(#linear-gradient-17);}.cls-49{fill:url(#linear-gradient-18);}.cls-50{fill:url(#linear-gradient-19);}.cls-51{fill:url(#linear-gradient-20);}.cls-52{fill:url(#linear-gradient-21);}.cls-53{fill:url(#linear-gradient-22);}.cls-54{fill:url(#linear-gradient-23);}.cls-55{fill:url(#linear-gradient-24);}.cls-56{fill:url(#linear-gradient-25);}.cls-57{fill:url(#linear-gradient-26);}.cls-58{fill:#2f2e41;}.cls-60{fill:url(#linear-gradient-27);}.cls-61,.cls-66{fill:#e6e8ec;}.cls-62{font-size:11.86px;}.cls-63{letter-spacing:-0.09em;}.cls-64{fill:#fefefe;stroke:#afabdd;stroke-miterlimit:10;stroke-width:0.47px;}.cls-65{fill:#0cbd82;}.cls-66,.cls-67{opacity:0.7;}.cls-67,.cls-68{fill:#3a3768;}</style><linearGradient id="linear-gradient" x1="320.07" y1="-417.13" x2="320.07" y2="-237.54" gradientTransform="matrix(1, 0, 0, -1, 3.15, -194.51)" gradientUnits="userSpaceOnUse"><stop offset="0" stop-color="gray" stop-opacity="0.25"/><stop offset="0.54" stop-color="gray" stop-opacity="0.12"/><stop offset="1" stop-color="gray" stop-opacity="0.1"/></linearGradient><linearGradient id="linear-gradient-2" x1="289.1" y1="-320.72" x2="289.1" y2="-272.69" gradientTransform="matrix(1, 0, 0, -1, 0.25, -191.28)" xlink:href="#linear-gradient"/><linearGradient id="linear-gradient-3" x1="289.09" y1="-306.45" x2="289.09" y2="-276.52" gradientTransform="matrix(1, 0, 0, -1, -0.27, -191.25)" xlink:href="#linear-gradient"/><clipPath id="clip-path"><rect class="cls-1" x="267.38" y="85.62" width="42.85" height="28.89" transform="translate(-8.53 29.25) rotate(-5.71)"/></clipPath><linearGradient id="linear-gradient-4" x1="289.1" y1="-382.32" x2="289.1" y2="-334.29" gradientTransform="matrix(1, 0, 0, -1, 6.38, -191.58)" xlink:href="#linear-gradient"/><linearGradient id="linear-gradient-5" x1="289.09" y1="-368.05" x2="289.09" y2="-338.12" gradientTransform="matrix(1, 0, 0, -1, 5.86, -191.56)" xlink:href="#linear-gradient"/><clipPath id="clip-path-2"><rect class="cls-1" x="273.52" y="146.91" width="42.85" height="28.89" transform="translate(-14.6 30.16) rotate(-5.71)"/></clipPath><linearGradient id="linear-gradient-6" x1="532.92" y1="-58.65" x2="532.92" y2="120.94" gradientTransform="matrix(0, 1, 1, 0, 327.98, -401.25)" xlink:href="#linear-gradient"/><linearGradient id="linear-gradient-7" x1="388.34" y1="-427.62" x2="388.34" y2="-384.06" gradientTransform="matrix(1, 0, 0, -1, 10.62, -201.7)" xlink:href="#linear-gradient"/><linearGradient id="linear-gradient-8" x1="529.2" y1="-452.89" x2="529.2" y2="-423.09" gradientTransform="matrix(1, -0.1, -0.1, -1, -174.77, -213.89)" xlink:href="#linear-gradient"/><linearGradient id="linear-gradient-9" x1="529.21" y1="-481.48" x2="529.21" y2="-464.2" gradientTransform="matrix(1, -0.1, -0.1, -1, -174.77, -213.89)" xlink:href="#linear-gradient"/><linearGradient id="linear-gradient-10" x1="132.94" y1="-385.95" x2="132.94" y2="-235.09" gradientTransform="matrix(1, 0, 0, -1, -4.68, -210.26)" xlink:href="#linear-gradient"/><linearGradient id="linear-gradient-11" x1="132.94" y1="-374.26" x2="132.94" y2="-262.18" gradientTransform="matrix(1, 0, 0, -1, -3.85, -210.3)" xlink:href="#linear-gradient"/><linearGradient id="linear-gradient-12" x1="57.63" y1="-423.33" x2="57.63" y2="-325.48" gradientTransform="matrix(0.99, -0.11, -0.11, -0.99, -37.26, -194.18)" xlink:href="#linear-gradient"/><linearGradient id="linear-gradient-13" x1="57.63" y1="-376.72" x2="57.63" y2="-372.09" gradientTransform="matrix(0.99, -0.11, -0.11, -0.99, -37.26, -194.18)" xlink:href="#linear-gradient"/><linearGradient id="linear-gradient-14" x1="64.21" y1="-374.69" x2="64.21" y2="-344.17" gradientTransform="matrix(0.99, -0.11, -0.11, -0.99, -37.26, -194.18)" xlink:href="#linear-gradient"/><linearGradient id="linear-gradient-15" x1="62.21" y1="-390.37" x2="62.21" y2="-374.4" gradientTransform="matrix(0.99, -0.11, -0.11, -0.99, -37.26, -194.18)" xlink:href="#linear-gradient"/><linearGradient id="linear-gradient-16" x1="-280.82" y1="1313.77" x2="-280.82" y2="1316.34" gradientTransform="matrix(0.59, 0.81, 0.81, -0.59, -868.47, 1160.23)" xlink:href="#linear-gradient"/><linearGradient id="linear-gradient-17" x1="209.12" y1="-514.55" x2="209.12" y2="-511.97" gradientTransform="matrix(0.99, -0.11, -0.11, -0.99, -231.28, -293.91)" xlink:href="#linear-gradient"/><linearGradient id="linear-gradient-18" x1="209.1" y1="464.77" x2="209.1" y2="467.35" gradientTransform="matrix(0.91, 0.4, 0.4, -0.91, -355.06, 518.53)" xlink:href="#linear-gradient"/><linearGradient id="linear-gradient-19" x1="-1129.02" y1="1803.5" x2="-1129.02" y2="1806.08" gradientTransform="matrix(0.11, 0.99, 0.99, -0.11, -1633.96, 1459.24)" xlink:href="#linear-gradient"/><linearGradient id="linear-gradient-20" x1="-1133.65" y1="1821.35" x2="-1133.65" y2="1823.93" gradientTransform="matrix(0.11, 0.99, 0.99, -0.11, -1633.96, 1459.24)" xlink:href="#linear-gradient"/><linearGradient id="linear-gradient-21" x1="-1129.03" y1="1839.2" x2="-1129.03" y2="1841.78" gradientTransform="matrix(0.11, 0.99, 0.99, -0.11, -1633.96, 1459.25)" xlink:href="#linear-gradient"/><linearGradient id="linear-gradient-22" x1="-1115.8" y1="1852.42" x2="-1115.8" y2="1855" gradientTransform="matrix(-0.5, 0.87, 0.87, 0.5, -2074.06, 190.27)" xlink:href="#linear-gradient"/><linearGradient id="linear-gradient-23" x1="-1079.11" y1="1852.09" x2="-1079.11" y2="1854.67" gradientTransform="matrix(-0.5, 0.87, 0.87, 0.5, -2051.81, 195.18)" xlink:href="#linear-gradient"/><linearGradient id="linear-gradient-24" x1="-1066.21" y1="1838.54" x2="-1066.21" y2="1841.12" gradientTransform="matrix(-0.5, 0.87, 0.87, 0.5, -2045.72, 205.05)" xlink:href="#linear-gradient"/><linearGradient id="linear-gradient-25" x1="-1062.24" y1="1821.35" x2="-1062.24" y2="1823.93" gradientTransform="matrix(-0.5, 0.87, 0.87, 0.5, -2045.52, 216.01)" xlink:href="#linear-gradient"/><linearGradient id="linear-gradient-26" x1="-1066.22" y1="1804.16" x2="-1066.22" y2="1806.73" gradientTransform="matrix(-0.5, 0.87, 0.87, 0.5, -2050.13, 225.95)" xlink:href="#linear-gradient"/><linearGradient id="linear-gradient-27" x1="564.24" y1="160.48" x2="733.24" y2="160.48" gradientUnits="userSpaceOnUse"><stop offset="0" stop-color="#fff"/><stop offset="1"/></linearGradient></defs><g id="Layer_2" data-name="Layer 2"><g id="Layer_1-2" data-name="Layer 1"><path class="cls-2" d="M446,196.92c134.82-.15,246.8,17.71,246.45,21.65C692.13,222,605.13,214,447,214c-157.11,0-243.9,8-244.21,4.58C202.48,214.65,313.05,197.06,446,196.92Z"/><path class="cls-2" d="M464.69,53.12c-42.71-.68-83.39-6.94-122.23-13.8s-77.32-14.46-119-18.1c-26.81-2.34-57.47-2.67-79.08,3.87-20.78,6.3-27.5,17.15-31.12,27.23C110.55,59.9,109,67.88,116.4,75c5.16,4.93,14.34,9.07,20.69,13.79,22.08,16.42,6.47,36.68-17.45,52.71-11.22,7.52-24.24,14.7-32.91,22.7s-12.67,17.18-5.09,25.35C95.91,204.91,126.45,208,126.45,208c78.7,7.55,157.08-6.8,157.08-6.8,81.19-14.87,164.37-30.1,249-7.7,68.16,18,91.24,20,137.41,23.87a152.84,152.84,0,0,0,56-9.3c15.42-5.81,17.14-15.14,17.82-17.39,3.39-11.2-4.68-21.33-6.28-23.34-7.79-9.78-15.77-8.73-24.27-16.92-10.9-10.5-10.82-24.77-10.79-30.78.15-28,25.26-35.63,22.16-53.33C721,45.33,682.12,34,674.39,32.38c-33-6.79-78.65-5.94-102.94,5.31C546.38,49.26,502.38,53.72,464.69,53.12Z"/><rect class="cls-3" x="261.03" y="30.21" width="275.42" height="0.8"/><rect class="cls-3" x="277.86" y="46.91" width="71.5" height="0.8"/><rect class="cls-3" x="277.86" y="52.54" width="71.5" height="0.8"/><rect class="cls-3" x="277.86" y="58.16" width="71.5" height="0.8"/><rect class="cls-4" x="279.31" y="26.73" width="16.08" height="13.07"/><path class="cls-3" d="M293.05,37.79H276.3V24.05h16.75ZM277,37.12h15.41V24.72H277Z"/><circle class="cls-5" cx="263.39" cy="31.06" r="3.19"/><rect class="cls-3" x="550.49" y="46.91" width="71.5" height="0.8"/><rect class="cls-3" x="550.49" y="52.54" width="71.5" height="0.8"/><rect class="cls-3" x="550.49" y="58.16" width="71.5" height="0.8"/><rect class="cls-4" x="551.94" y="26.73" width="16.08" height="13.07"/><path class="cls-3" d="M565.68,37.79H548.92V24.05h16.76Zm-16.09-.67H565V24.72H549.59Z"/><circle class="cls-5" cx="536.01" cy="31.06" r="3.19"/><rect class="cls-3" x="414.37" y="13.5" width="71.5" height="0.8"/><rect class="cls-3" x="414.37" y="7.87" width="71.5" height="0.8"/><rect class="cls-3" x="414.37" y="2.25" width="71.5" height="0.8"/><rect class="cls-4" x="415.83" y="21.41" width="16.08" height="13.07"/><path class="cls-3" d="M429.56,37.16H412.81V23.42h16.75Zm-16.08-.67h15.41V24.09H413.48Z"/><circle class="cls-5" cx="399.9" cy="30.15" r="3.19"/><circle class="cls-6" cx="313.72" cy="30.21" r="7.18"/><path class="cls-5" d="M313.72,22.12a7.95,7.95,0,1,0,7.94,7.94,7.94,7.94,0,0,0-7.94-7.94Zm-1.38,11.5-3.41-3.42.95-1,2.47,2.47,5.2-5.2,1,1Z"/><g class="cls-7"><rect class="cls-8" x="256.39" y="43.03" width="133.65" height="179.59" transform="translate(-11.62 32.84) rotate(-5.71)"/></g><rect class="cls-9" x="258.07" y="45.5" width="129.47" height="173.32" transform="translate(-11.55 32.79) rotate(-5.71)"/><rect class="cls-10" x="260.49" y="56.42" width="44.55" height="1.39" transform="translate(-4.28 28.43) rotate(-5.71)"/><rect class="cls-11" x="261.12" y="62.66" width="44.55" height="1.39" transform="translate(-4.9 28.53) rotate(-5.71)"/><rect class="cls-10" x="311.4" y="51.33" width="44.55" height="1.39" transform="translate(-3.52 33.48) rotate(-5.71)"/><rect class="cls-10" x="322.27" y="90.12" width="44.55" height="1.39" transform="translate(-7.33 34.75) rotate(-5.71)"/><rect class="cls-10" x="323.69" y="93.82" width="44.55" height="1.39" transform="matrix(1, -0.1, 0.1, 1, -7.69, 34.91)"/><rect class="cls-10" x="326.15" y="97.42" width="44.55" height="1.39" transform="translate(-8.04 35.17) rotate(-5.71)"/><rect class="cls-10" x="328.41" y="151.41" width="44.55" height="1.39" transform="translate(-13.4 35.67) rotate(-5.71)"/><rect class="cls-10" x="329.83" y="155.12" width="44.55" height="1.39" transform="translate(-13.76 35.83) rotate(-5.71)"/><rect class="cls-10" x="332.29" y="158.72" width="44.55" height="1.39" transform="translate(-14.11 36.09) rotate(-5.71)"/><g class="cls-7"><rect class="cls-12" x="265.68" y="81.42" width="47.33" height="48.03" transform="translate(-9.06 29.33) rotate(-5.71)"/></g><rect class="cls-13" x="265.98" y="82.47" width="46.59" height="45.94" transform="translate(-9.06 29.32) rotate(-5.71)"/><g class="cls-7"><rect class="cls-14" x="267.1" y="85.27" width="43.45" height="29.93" transform="translate(-8.54 29.25) rotate(-5.71)"/></g><rect id="_689f37f3-cc41-448d-b172-63ec123bc985" data-name="689f37f3-cc41-448d-b172-63ec123bc985" class="cls-6" x="267.38" y="85.62" width="42.85" height="28.89" transform="translate(-8.53 29.25) rotate(-5.71)"/><g class="cls-15"><polygon class="cls-16" points="265.21 115.89 274.28 98.19 279.51 105.01 288.2 94 297.52 103.21 303.3 87.59 324.99 115.51 264.17 119.49 265.21 115.89"/><circle class="cls-16" cx="271.16" cy="91.51" r="3.13"/></g><g class="cls-7"><rect class="cls-17" x="271.81" y="142.71" width="47.33" height="48.03" transform="translate(-15.13 30.24) rotate(-5.71)"/></g><rect class="cls-13" x="272.11" y="143.76" width="46.59" height="45.94" transform="translate(-15.13 30.24) rotate(-5.71)"/><g class="cls-7"><rect class="cls-18" x="273.23" y="146.57" width="43.45" height="29.93" transform="translate(-14.62 30.17) rotate(-5.71)"/></g><rect id="b429ac3a-f8a8-4171-bcce-5b6c002c0714" class="cls-6" x="273.52" y="146.91" width="42.85" height="28.89" transform="translate(-14.6 30.16) rotate(-5.71)"/><g class="cls-19"><polygon class="cls-20" points="271.34 177.18 280.42 159.49 285.65 166.31 294.34 155.3 303.65 164.51 309.44 148.89 331.12 176.8 270.31 180.79 271.34 177.18"/><circle class="cls-20" cx="277.3" cy="152.81" r="3.13"/></g><g class="cls-7"><rect class="cls-21" x="269.33" y="64.85" width="179.59" height="133.65" transform="translate(193.48 476.44) rotate(-84.47)"/></g><rect class="cls-6" x="272.18" y="66.21" width="173.32" height="129.47" transform="translate(193.95 475.51) rotate(-84.47)"/><g class="cls-7"><rect class="cls-22" x="254.22" y="209.29" width="1.04" height="5.92" transform="translate(-19.86 26.41) rotate(-5.71)"/><rect class="cls-22" x="251.78" y="211.73" width="5.92" height="1.04" transform="translate(-19.86 26.41) rotate(-5.71)"/></g><path class="cls-23" d="M357.59,16.9a1.28,1.28,0,0,1-.86-1.47.78.78,0,0,0,0-.14h0a.65.65,0,0,0-.68-.6.63.63,0,0,0-.5.29h0l-.06.13a1.27,1.27,0,0,1-1.46.86h-.15a.63.63,0,0,0-.59.68.64.64,0,0,0,.28.49h0a.42.42,0,0,0,.14.06,1.29,1.29,0,0,1,.86,1.47.59.59,0,0,0,0,.14h0a.65.65,0,0,0,.68.6.67.67,0,0,0,.5-.29h0l.06-.13a1.26,1.26,0,0,1,1.46-.86h.15a.63.63,0,0,0,.59-.68.64.64,0,0,0-.28-.49h0A.42.42,0,0,0,357.59,16.9Z"/><path class="cls-24" d="M243.57,58a1.27,1.27,0,0,1-.86-1.47.61.61,0,0,0,0-.14h0a.64.64,0,0,0-.68-.6.62.62,0,0,0-.49.29h0a.38.38,0,0,0-.06.13,1.27,1.27,0,0,1-1.47.86h-.14a.64.64,0,0,0-.31,1.17h0a.38.38,0,0,0,.13.06,1.27,1.27,0,0,1,.86,1.47.66.66,0,0,0,0,.14h0a.64.64,0,0,0,.68.6.62.62,0,0,0,.49-.29h0a.31.31,0,0,0,.06-.13,1.27,1.27,0,0,1,1.47-.86h.14a.64.64,0,0,0,.6-.68.62.62,0,0,0-.29-.49h0A.31.31,0,0,0,243.57,58Z"/><path class="cls-24" d="M243,145.3a1.29,1.29,0,0,1-.86-1.47.78.78,0,0,0,0-.14h0a.65.65,0,0,0-.68-.6.63.63,0,0,0-.5.29h0l-.06.13a1.27,1.27,0,0,1-1.46.86h-.15a.63.63,0,0,0-.59.68.64.64,0,0,0,.28.49h0a.42.42,0,0,0,.14.06,1.29,1.29,0,0,1,.86,1.47.59.59,0,0,0,0,.14h0a.65.65,0,0,0,.68.6.67.67,0,0,0,.5-.29h0l.06-.13a1.26,1.26,0,0,1,1.46-.86h.15a.63.63,0,0,0,.59-.68.64.64,0,0,0-.28-.49h0A.42.42,0,0,0,243,145.3Z"/><circle class="cls-25" cx="295.68" cy="28.89" r="2.09"/><circle class="cls-25" cx="210.3" cy="120.03" r="2.09"/><circle class="cls-25" cx="447.19" cy="39.97" r="2.09" transform="translate(-1.76 44.72) rotate(-5.71)"/><circle class="cls-23" cx="441.62" cy="103.14" r="2.09" transform="translate(-8.07 44.48) rotate(-5.71)"/><circle class="cls-26" cx="214.01" cy="70.41" r="2.09"/><circle class="cls-26" cx="459.16" cy="189.47" r="2.09"/><circle class="cls-26" cx="469.31" cy="126.58" r="2.09" transform="translate(-10.27 47.35) rotate(-5.71)"/><rect class="cls-27" x="372.43" y="182.36" width="53.06" height="43.56" transform="translate(-18.34 40.73) rotate(-5.71)"/><rect class="cls-10" x="354.01" y="55.92" width="1.39" height="91.88" transform="translate(219.15 445.11) rotate(-84.47)"/><rect class="cls-10" x="344.94" y="141.92" width="1.39" height="91.88" transform="translate(125.35 513.79) rotate(-84.47)"/><rect class="cls-10" x="333.77" y="159.33" width="1.39" height="71" transform="translate(108.33 508.98) rotate(-84.47)"/><rect class="cls-11" x="310.83" y="187.42" width="1.39" height="26.45" transform="translate(81.81 491.4) rotate(-84.47)"/><rect class="cls-11" x="330.37" y="84.65" width="1.39" height="45.94" transform="translate(192.06 426.79) rotate(-84.47)"/><rect class="cls-10" x="347.97" y="75.95" width="1.39" height="82.83" transform="translate(198.26 453.1) rotate(-84.47)"/><rect class="cls-28" x="316.02" y="112.22" width="1.39" height="20.19" transform="translate(164.46 425.78) rotate(-84.47)"/><rect class="cls-10" x="350.92" y="87.8" width="1.39" height="91.88" transform="translate(184.64 470.84) rotate(-84.47)"/><rect class="cls-10" x="350.15" y="95.76" width="1.39" height="91.88" transform="translate(176.01 477.28) rotate(-84.47)"/><rect class="cls-5" x="314.46" y="157.77" width="33.76" height="10.09" transform="translate(137.37 476.93) rotate(-84.47)"/><rect class="cls-29" x="337.51" y="165.06" width="22.62" height="10.09" transform="translate(145.91 500.92) rotate(-84.47)"/><rect class="cls-30" x="360.24" y="171.99" width="12.18" height="10.09" transform="translate(154.83 524.61) rotate(-84.47)"/><rect class="cls-31" x="372.59" y="167.5" width="24.71" height="10.09" transform="translate(176.12 539.09) rotate(-84.47)"/><text class="cls-32" transform="translate(320.9 89.28) rotate(5.71)">T<tspan class="cls-33" x="26.87" y="0">AX</tspan></text><path class="cls-34" d="M380.46,175.73a15.52,15.52,0,0,1,30.89-3.09l1,9.89,4.33-.44-1-9.88a19.87,19.87,0,0,0-39.54,4h0l1,9.88,4.32-.43Z"/><path class="cls-13" d="M381.05,175.46a14.9,14.9,0,0,1,29.66-3h0l1,9.49,4.15-.41-.95-9.49a19.07,19.07,0,0,0-38,3.79l1,9.5L382,185Z"/><rect class="cls-5" x="372.95" y="182.77" width="51.86" height="42.32" transform="translate(-18.32 40.72) rotate(-5.71)"/><rect class="cls-13" x="372.95" y="182.77" width="51.86" height="42.32" transform="translate(-18.32 40.72) rotate(-5.71)"/><rect class="cls-5" x="372.95" y="191.11" width="51.86" height="25.63" transform="translate(-18.32 40.72) rotate(-5.71)"/><path class="cls-35" d="M402.18,198.73a3.8,3.8,0,0,0-7.57.74,3.84,3.84,0,0,0,1.29,2.5l.81,8.07a2.76,2.76,0,1,0,5.5-.55l-.8-8.06A3.81,3.81,0,0,0,402.18,198.73Z"/><path class="cls-36" d="M401.72,199.45a3.28,3.28,0,1,0-5.41,2.8l.7,7a2.38,2.38,0,0,0,4.74-.48l-.69-7A3.23,3.23,0,0,0,401.72,199.45Z"/><rect class="cls-9" x="7.39" y="33.52" width="228.84" height="150.03" transform="translate(-10.95 13.71) rotate(-6.17)"/><rect class="cls-37" x="14.19" y="24.83" width="228.15" height="150.87" transform="translate(-10.03 14.35) rotate(-6.17)"/><rect class="cls-6" x="16.9" y="42.65" width="223.59" height="128.48" transform="translate(-10.73 14.44) rotate(-6.17)"/><rect class="cls-5" x="9.21" y="28.37" width="223.59" height="14.69" transform="translate(-3.14 13.2) rotate(-6.17)"/><rect class="cls-38" x="20.15" y="51.88" width="217.88" height="112.08" transform="matrix(0.99, -0.11, 0.11, 0.99, -10.84, 14.49)"/><rect class="cls-39" x="18.72" y="64.13" width="26.24" height="20.96" transform="translate(-7.83 3.85) rotate(-6.17)"/><rect class="cls-6" x="45.09" y="61.28" width="26.24" height="20.96" transform="translate(-7.37 6.67) rotate(-6.17)"/><rect class="cls-40" x="71.46" y="58.43" width="26.24" height="20.96" transform="translate(-6.91 9.48) rotate(-6.17)"/><rect class="cls-6" x="97.83" y="55.58" width="26.24" height="20.96" transform="translate(-6.45 12.3) rotate(-6.17)"/><rect class="cls-6" x="124.19" y="52.73" width="26.24" height="20.96" transform="translate(-5.99 15.11) rotate(-6.17)"/><rect class="cls-39" x="150.56" y="49.89" width="26.24" height="20.96" transform="translate(-5.54 17.93) rotate(-6.17)"/><rect class="cls-6" x="176.93" y="47.04" width="26.24" height="20.96" transform="translate(-5.08 20.74) rotate(-6.17)"/><rect class="cls-40" x="203.3" y="44.19" width="26.24" height="20.96" transform="translate(-4.62 23.56) rotate(-6.17)"/><rect class="cls-40" x="21.01" y="85.39" width="26.24" height="20.96" transform="translate(-10.1 4.22) rotate(-6.17)"/><rect class="cls-40" x="47.38" y="82.55" width="26.24" height="20.96" transform="translate(-9.64 7.04) rotate(-6.17)"/><rect class="cls-6" x="73.75" y="79.7" width="26.24" height="20.96" transform="translate(-9.18 9.85) rotate(-6.17)"/><rect class="cls-39" x="100.12" y="76.85" width="26.24" height="20.96" transform="translate(-8.72 12.67) rotate(-6.17)"/><rect class="cls-6" x="126.49" y="74" width="26.24" height="20.96" transform="translate(-8.27 15.48) rotate(-6.17)"/><rect class="cls-40" x="152.86" y="71.15" width="26.24" height="20.96" transform="translate(-7.81 18.3) rotate(-6.17)"/><rect class="cls-39" x="179.23" y="68.3" width="26.24" height="20.96" transform="translate(-7.35 21.11) rotate(-6.17)"/><rect class="cls-6" x="205.6" y="65.45" width="26.24" height="20.96" transform="translate(-6.89 23.93) rotate(-6.17)"/><rect class="cls-6" x="23.28" y="106.38" width="26.24" height="20.96" transform="translate(-12.34 4.59) rotate(-6.17)"/><rect class="cls-6" x="49.65" y="103.53" width="26.24" height="20.96" transform="translate(-11.88 7.4) rotate(-6.17)"/><rect class="cls-40" x="76.02" y="100.68" width="26.24" height="20.96" transform="translate(-11.42 10.22) rotate(-6.17)"/><rect class="cls-6" x="102.39" y="97.83" width="26.24" height="20.96" transform="matrix(0.99, -0.11, 0.11, 0.99, -10.96, 13.03)"/><rect class="cls-40" x="128.76" y="94.98" width="26.24" height="20.96" transform="translate(-10.51 15.85) rotate(-6.17)"/><rect class="cls-6" x="155.13" y="92.13" width="26.24" height="20.96" transform="translate(-10.05 18.66) rotate(-6.17)"/><rect class="cls-6" x="181.5" y="89.29" width="26.24" height="20.96" transform="translate(-9.59 21.48) rotate(-6.17)"/><rect class="cls-40" x="207.87" y="86.44" width="26.24" height="20.96" transform="matrix(0.99, -0.11, 0.11, 0.99, -9.13, 24.29)"/><rect class="cls-6" x="25.55" y="127.36" width="26.24" height="20.96" transform="translate(-14.58 4.95) rotate(-6.17)"/><rect class="cls-39" x="51.92" y="124.51" width="26.24" height="20.96" transform="translate(-14.12 7.77) rotate(-6.17)"/><rect class="cls-39" x="78.29" y="121.66" width="26.24" height="20.96" transform="translate(-13.66 10.58) rotate(-6.17)"/><rect class="cls-6" x="104.66" y="118.81" width="26.24" height="20.96" transform="translate(-13.2 13.4) rotate(-6.17)"/><rect class="cls-6" x="131.02" y="115.96" width="26.24" height="20.96" transform="translate(-12.75 16.21) rotate(-6.17)"/><rect class="cls-39" x="157.39" y="113.12" width="26.24" height="20.96" transform="translate(-12.29 19.03) rotate(-6.17)"/><rect class="cls-6" x="183.76" y="110.27" width="26.24" height="20.96" transform="translate(-11.83 21.84) rotate(-6.17)"/><rect class="cls-39" x="210.13" y="107.42" width="26.24" height="20.96" transform="translate(-11.37 24.66) rotate(-6.17)"/><rect class="cls-39" x="27.85" y="148.62" width="26.24" height="20.96" transform="matrix(0.99, -0.11, 0.11, 0.99, -16.85, 5.32)"/><rect class="cls-40" x="54.21" y="145.77" width="26.24" height="20.96" transform="translate(-16.39 8.14) rotate(-6.17)"/><rect class="cls-6" x="80.58" y="142.93" width="26.24" height="20.96" transform="translate(-15.93 10.95) rotate(-6.17)"/><rect class="cls-39" x="106.95" y="140.08" width="26.24" height="20.96" transform="translate(-15.47 13.77) rotate(-6.17)"/><rect class="cls-40" x="133.32" y="137.23" width="26.24" height="20.96" transform="translate(-15.02 16.58) rotate(-6.17)"/><rect class="cls-6" x="159.69" y="134.38" width="26.24" height="20.96" transform="translate(-14.56 19.4) rotate(-6.17)"/><rect class="cls-40" x="186.06" y="131.53" width="26.24" height="20.96" transform="translate(-14.1 22.21) rotate(-6.17)"/><rect class="cls-6" x="212.43" y="128.68" width="26.24" height="20.96" transform="translate(-13.64 25.03) rotate(-6.17)"/><rect class="cls-41" x="24.98" y="109.15" width="7.99" height="7.99" transform="translate(-11.98 3.77) rotate(-6.17)"/><rect class="cls-41" x="99.27" y="58.67" width="7.99" height="7.99" transform="translate(-6.13 11.45) rotate(-6.17)"/><rect class="cls-41" x="102.95" y="100.73" width="7.99" height="7.99" transform="translate(-10.63 12.09) rotate(-6.17)"/><rect class="cls-41" x="132.06" y="117.95" width="7.99" height="7.99" transform="translate(-12.31 15.32) rotate(-6.17)"/><rect class="cls-41" x="182.34" y="92.15" width="7.99" height="7.99" transform="translate(-9.25 20.57) rotate(-6.17)"/><circle class="cls-42" cx="60.25" cy="171.86" r="48.92"/><circle class="cls-5" cx="60.25" cy="171.86" r="47.6"/><circle class="cls-6" cx="60.25" cy="171.86" r="38.68"/><circle class="cls-43" cx="60.25" cy="171.86" r="2.31"/><line class="cls-1" x1="69.88" y1="140.9" x2="60.58" y2="171.83"/><polygon class="cls-44" points="61.15 172.05 59.68 171.73 69.22 140.49 70.7 141 61.15 172.05"/><rect class="cls-45" x="49.08" y="155.86" width="32.29" height="0.99" transform="translate(-103.29 173.83) rotate(-73.28)"/><line class="cls-1" x1="60.62" y1="172.16" x2="70.47" y2="186.39"/><polygon class="cls-46" points="69.92 186.88 60.05 172.46 61.12 171.77 71.25 185.88 69.92 186.88"/><rect class="cls-45" x="65.04" y="170.63" width="0.99" height="17.31" transform="translate(-90.38 69.16) rotate(-34.69)"/><circle class="cls-5" cx="96.18" cy="168.98" r="0.99"/><circle class="cls-47" cx="27.48" cy="157.48" r="1.29"/><circle class="cls-48" cx="31.75" cy="193.93" r="1.29"/><circle class="cls-49" cx="24.54" cy="176.72" r="1.29"/><circle class="cls-50" cx="39.14" cy="142.92" r="1.29"/><circle class="cls-51" cx="56.39" cy="136.41" r="1.29"/><circle class="cls-52" cx="74.64" cy="139.09" r="1.29"/><circle class="cls-53" cx="89.2" cy="150.82" r="1.29" transform="translate(-71.81 81.7) rotate(-36.17)"/><circle class="cls-54" cx="92.81" cy="187.33" r="1.29" transform="translate(-92.66 90.87) rotate(-36.17)"/><circle class="cls-55" cx="80.72" cy="201.61" r="1.29" transform="translate(-103.42 86.48) rotate(-36.17)"/><circle class="cls-56" cx="64.06" cy="207.4" r="1.29" transform="translate(-110.05 77.76) rotate(-36.17)"/><circle class="cls-57" cx="46.54" cy="205.3" r="1.29" transform="translate(-112.18 67.02) rotate(-36.17)"/><circle class="cls-41" cx="56.42" cy="136.37" r="0.99"/><circle class="cls-41" cx="74.68" cy="139.21" r="0.99"/><circle class="cls-41" cx="89.08" cy="150.8" r="0.99" transform="translate(-71.82 81.62) rotate(-36.17)"/><circle class="cls-41" cx="92.81" cy="187.33" r="0.99" transform="translate(-116.05 196.53) rotate(-66.17)"/><circle class="cls-41" cx="80.72" cy="201.54" r="0.99" transform="translate(-103.38 86.46) rotate(-36.17)"/><circle class="cls-41" cx="39.18" cy="143.04" r="0.99"/><circle class="cls-41" cx="27.6" cy="157.44" r="0.99"/><circle class="cls-41" cx="96.16" cy="169.02" r="1.29" transform="translate(-81.21 89.31) rotate(-36.17)"/><circle class="cls-41" cx="31.75" cy="193.93" r="0.99"/><circle class="cls-41" cx="46.6" cy="205.22" r="0.99" transform="translate(-159.95 164.92) rotate(-66.17)"/><circle class="cls-41" cx="24.54" cy="176.72" r="0.99"/><circle class="cls-41" cx="64.09" cy="207.36" r="0.99"/><path class="cls-40" d="M24.16,179.42a38.69,38.69,0,0,1,69.75-26.89,38.68,38.68,0,1,0-67.36,38.05,40,40,0,0,0,2.37,3.7A38.7,38.7,0,0,1,24.16,179.42Z"/><circle class="cls-41" cx="60.25" cy="171.86" r="1.65"/><path class="cls-58" d="M738,45.7C747,58.91,745,76,745,76s-16.69-4.31-25.75-17.52-7-30.33-7-30.33S728.91,32.48,738,45.7Z"/><path class="cls-5" d="M731.45,48.22c1.06,16,13.22,28.19,13.22,28.19s10.45-13.7,9.39-29.69-13.22-28.19-13.22-28.19S730.39,32.24,731.45,48.22Z"/><path class="cls-4" d="M627.47,1.87l123,61.82a5.81,5.81,0,0,1,3.19,5.59L746.47,175.1a2.87,2.87,0,0,1-3.06,2.68,3,3,0,0,1-1.11-.3L616.53,113.29,623,4.45a3.1,3.1,0,0,1,3.27-2.9A3,3,0,0,1,627.47,1.87Z"/><path class="cls-3" d="M628.88,4l119.94,60.3a5.65,5.65,0,0,1,3.11,5.45L745,173a2.83,2.83,0,0,1-3,2.62,3,3,0,0,1-1.08-.3L618.22,112.71l6.3-106.17a3,3,0,0,1,3.19-2.83A3.05,3.05,0,0,1,628.88,4Z"/><path class="cls-6" d="M634.14,12,742.86,66.7a5.13,5.13,0,0,1,2.82,4.94l-6.31,93.57a2.56,2.56,0,0,1-2.72,2.37,2.81,2.81,0,0,1-1-.27l-111.2-56.75,5.71-96.24a2.73,2.73,0,0,1,2.89-2.57A2.67,2.67,0,0,1,634.14,12Z"/><path class="cls-4" d="M522,165.36l123.12,62a8.2,8.2,0,0,0,7.38,0l91.09-46.24a3.84,3.84,0,0,0,.57-3.84,8.48,8.48,0,0,0-.67-1.66L731,169.1,626.67,117l-6.23-3.31a11.54,11.54,0,0,0-10.72,0l-87.81,45.61a3.41,3.41,0,0,0,0,6.07Z"/><path class="cls-59" d="M522,165.36l123.12,62a8.2,8.2,0,0,0,7.38,0l91.09-46.24a3.84,3.84,0,0,0,.57-3.84l-90.81,47.2a7.9,7.9,0,0,1-7.18.06l-126-62.77A3.4,3.4,0,0,0,522,165.36Z"/><path class="cls-59" d="M638.81,183.94l-39.87-20.15a5.62,5.62,0,0,0-5.17.06l-23.13,12.36a1.66,1.66,0,0,0-.68,2.24,1.6,1.6,0,0,0,.72.69l40.65,20.5a4.58,4.58,0,0,0,4.33-.09l23.23-13.09a1.43,1.43,0,0,0,.54-1.94A1.45,1.45,0,0,0,638.81,183.94Z"/><path class="cls-60" d="M732.72,180.57l-42.91,22.79a3.47,3.47,0,0,1-3.21,0L565.37,142.09a2.06,2.06,0,0,1,0-3.69l41.89-20.73a4.53,4.53,0,0,1,4.06,0L732.7,178.82a1,1,0,0,1,.43,1.32A1,1,0,0,1,732.72,180.57Z"/><polyline class="cls-61" points="616.23 26.11 612.29 34.18 640.78 51.26 652.31 22.87"/><polygon class="cls-5" points="640.39 46.15 655.09 16.36 626.11 0 611.9 29.07 640.39 46.15"/><rect class="cls-6" x="635.34" y="5.55" width="0.48" height="25.39" transform="translate(299.06 557.74) rotate(-59.69)"/><rect class="cls-6" x="633.41" y="9.52" width="0.48" height="25.39" transform="translate(294.69 558.04) rotate(-59.69)"/><text class="cls-62" transform="matrix(1.3, 0.66, -0.06, 1, 643.54, 57.77)">Schedule <tspan class="cls-63" x="45.74" y="0">T</tspan><tspan x="50.8" y="0">ax</tspan><tspan x="0" y="14.24">Appointment!</tspan></text><path class="cls-64" d="M647.62,95c-.14-3.22-.29-6.45-.41-9.66,0-.83.69-1,1.72-.54l.5.26,58.83,30.75a5.39,5.39,0,0,1,1.22.77,2.9,2.9,0,0,1,1.14,1.93q.38,9.08.76,18.14c0,.89-.67,1.09-1.78.55l-.62-.32-58.52-30.59c-.21-.1-.42-.21-.62-.33a3.42,3.42,0,0,1-1.87-2.39c-.12-2.47-.2-4.93-.3-7.4A1.25,1.25,0,0,0,647.62,95Z"/><path class="cls-65" d="M687.09,113.37l-14.4-7.53c-.28-.15-.56-.29-.84-.46a2.75,2.75,0,0,1-1.4-1.6c-.05-.48.41-.63,1.15-.34a7,7,0,0,1,.84.39l29.12,15.22a3.86,3.86,0,0,1,2,1.79c.25.69-.34.89-1.32.45-.28-.13-.56-.28-.84-.43Z"/><path class="cls-64" d="M660.89,108.52c-3.12-1.64-5.74-6.2-5.9-10.25s2.21-6,5.32-4.34,5.77,6.25,5.92,10.26S664,110.16,660.89,108.52Z"/><path class="cls-65" d="M660.08,104.2a1.81,1.81,0,0,1-.51-.52c-.55-.8-1.11-1.6-1.66-2.42a1.44,1.44,0,0,1-.25-1.53c.26-.31.67-.13,1.11.47l.09.12c.34.44.65,1.23,1,1.3s.47-.45.69-.72c.54-.68,1.07-1.36,1.62-2,.34-.43.74-.35,1.13.21a1.29,1.29,0,0,1,.11,1.61c-.88,1.12-1.76,2.22-2.63,3.34A.52.52,0,0,1,660.08,104.2Z"/><path class="cls-65" d="M687.36,119.85,673,112.32c-.28-.14-.56-.29-.84-.46a2.74,2.74,0,0,1-1.39-1.59c-.06-.49.4-.64,1.14-.35a7,7,0,0,1,.84.39l29.13,15.22a3.87,3.87,0,0,1,2,1.79c.25.69-.34.89-1.32.45-.28-.13-.56-.28-.84-.43Z"/><rect class="cls-5" x="454.64" y="38.83" width="103.17" height="153.41" rx="2.34"/><rect class="cls-59" x="464.08" y="52.02" width="85.57" height="30.16" rx="6.99"/><rect class="cls-61" x="464.63" y="52.6" width="84.27" height="29.17" rx="2.44"/><rect class="cls-66" x="467.06" y="94.74" width="17.02" height="18.91" rx="2.58"/><rect class="cls-66" x="487.86" y="94.74" width="17.02" height="18.91" rx="2.58"/><rect class="cls-66" x="508.65" y="94.74" width="17.02" height="18.91" rx="2.58"/><rect class="cls-59" x="529.45" y="95.14" width="17.02" height="18.91" rx="6.9"/><rect class="cls-67" x="529.45" y="94.74" width="17.02" height="18.91" rx="2.58"/><rect class="cls-66" x="467.06" y="115.53" width="17.02" height="18.91" rx="2.58"/><rect class="cls-66" x="487.86" y="115.53" width="17.02" height="18.91" rx="2.58"/><rect class="cls-66" x="508.65" y="115.53" width="17.02" height="18.91" rx="2.58"/><rect class="cls-66" x="467.06" y="138.49" width="17.02" height="18.91" rx="2.58"/><rect class="cls-66" x="487.86" y="138.49" width="17.02" height="18.91" rx="2.58"/><rect class="cls-66" x="508.65" y="138.49" width="17.02" height="18.91" rx="2.58"/><rect class="cls-66" x="508.65" y="161.45" width="17.02" height="18.91" rx="2.58"/><rect class="cls-59" x="529.45" y="115.94" width="17.02" height="18.91" rx="6.9"/><rect class="cls-5" x="529.45" y="115.53" width="17.02" height="18.91" rx="2.7"/><rect class="cls-68" x="529.45" y="115.53" width="17.02" height="18.91" rx="2.7"/><rect class="cls-66" x="467.06" y="161.45" width="37.81" height="18.91" rx="2.4"/><rect class="cls-66" x="527.83" y="138.49" width="18.64" height="41.87" rx="2.79"/><rect class="cls-5" x="537.67" y="76.68" width="7.45" height="0.81"/><rect class="cls-5" x="526.76" y="76.68" width="7.45" height="0.81"/><rect class="cls-5" x="515.85" y="76.68" width="7.45" height="0.81"/><rect class="cls-5" x="504.95" y="76.68" width="7.45" height="0.81"/></g></g></svg>